# xmcd
#
# Track frame offsets: 
#        150
#        23512
#        52597
#        79252
#        97110
#        120450
#        135707
#        164672
#        188510
#        219560
#
# Disc length: 3171 seconds
#
# Revision: 3
# Processed by: cddbd v1.5.2PL0 Copyright (c) Steve Scherf et al.
# Submitted via: ExactAudioCopy v1.0b3
#
DISCID=7c0c610a
DTITLE=Boby Mack And Night Train - Red Hot And Humid
DYEAR=1991
DGENRE=Bluesrock
TTITLE0=Blackjack
TTITLE1=In the open
TTITLE2=Maudie
TTITLE3=Look Watcha Done
TTITLE4=She's so fine
TTITLE5=Phillip West
TTITLE6=Aint nobody's business
TTITLE7=Change my mind
TTITLE8=All night long
TTITLE9=Take it home
EXTD=
EXTT0=
EXTT1=
EXTT2=
EXTT3=
EXTT4=
EXTT5=
EXTT6=
EXTT7=
EXTT8=
EXTT9=
PLAYORDER=
